<svg width="87" height="29" viewBox="0 0 87 29" fill="none" xmlns="http://www.w3.org/2000/svg">
<path fill-rule="evenodd" clip-rule="evenodd" d="M2.20718 11.5L5.85363 15.1464L5.14652 15.8536L0.292969 11L5.14652 6.14645L5.85363 6.85355L2.20718 10.5H27.0001V11.5H2.20718Z" fill="#ffffff"/>
<path fill-rule="evenodd" clip-rule="evenodd" d="M84.793 11.5L81.1465 15.1464L81.8536 15.8536L86.7072 11L81.8536 6.14645L81.1465 6.85355L84.793 10.5H60.0001V11.5H84.793Z" fill="#ffffff"/>
<path fill-rule="evenodd" clip-rule="evenodd" d="M48.1114 7.10752C48.7346 6.85055 49.4478 7.146 49.7029 7.76485L51.9667 13.2811L52.3056 14.0855C52.7947 15.2277 53.2559 16.3071 53.3893 17.569C53.4855 18.4721 53.5004 19.4485 53.5141 20.3913C53.5333 21.6383 53.5513 22.8258 53.7406 23.8661L44.5225 27.6865C43.0048 26.2608 42.0756 25.6165 41.3227 25.0926C40.4568 24.4911 39.8318 24.0573 38.7021 22.7488C38.1832 22.1492 37.6506 21.3708 37.1342 20.6179C36.5023 19.6974 35.9058 18.8265 35.3161 18.2294C34.7153 17.6217 34.1721 16.618 34.3459 16.1842C34.4918 15.8266 35.2249 15.9048 35.5333 15.9539C35.9287 16.0184 36.691 16.2258 37.3508 16.8812L37.4576 16.9874C37.6425 17.1692 38.1192 17.6304 38.2024 17.852L38.537 18.6583C38.6239 18.8694 38.8275 18.9966 39.0416 18.9966C39.113 18.9966 39.1844 18.9829 39.2514 18.9556C39.532 18.8396 39.6642 18.5187 39.5487 18.24L33.1945 2.90283C32.9208 2.23743 33.2373 1.47147 33.9034 1.19588C34.5657 0.920282 35.3372 1.23995 35.6109 1.90287L40.0633 12.6492C40.1794 12.9298 40.4997 13.0608 40.7796 12.9459C41.0589 12.8298 41.1911 12.5108 41.0751 12.2302L39.4562 8.32039C39.324 8.0001 39.3253 7.64568 39.4587 7.32167C39.5934 6.99766 39.8442 6.74503 40.1632 6.61344C40.4841 6.48122 40.8379 6.48122 41.1626 6.61468C41.4866 6.74937 41.7386 7.00014 41.872 7.31918L43.6541 11.6232C43.7689 11.9025 44.0917 12.0347 44.3692 11.9186C44.6497 11.8038 44.7819 11.4829 44.6659 11.2042L43.5362 8.47495C43.2792 7.85361 43.5753 7.14042 44.196 6.8822C44.8148 6.62771 45.5305 6.92317 45.7875 7.54202L47.0481 10.5866C47.163 10.8659 47.4845 10.9994 47.7644 10.8821C48.0438 10.7672 48.176 10.4463 48.0599 10.167L47.4541 8.70088C47.1959 8.07893 47.4907 7.36574 48.1114 7.10752ZM50.7153 7.34712C50.2293 6.16839 48.8693 5.60851 47.6924 6.09514C47.2697 6.2708 46.9302 6.56005 46.6856 6.91076C46.1196 5.86672 44.8763 5.41422 43.7745 5.87045C43.3518 6.04549 43.0129 6.33598 42.7683 6.68606C42.5077 6.20066 42.1005 5.81582 41.5809 5.60106C40.9875 5.35588 40.3333 5.35588 39.7442 5.60044C39.3085 5.78106 38.9454 6.08025 38.6847 6.46198L36.6233 1.48389C36.1181 0.261708 34.7053 -0.324863 33.4844 0.182878C32.2591 0.690619 31.6756 2.09839 32.1834 3.32243L37.1913 15.4101C36.7326 15.1482 36.2323 14.9576 35.7109 14.8714C34.0647 14.602 33.5117 15.3226 33.3298 15.777C32.8779 16.9036 33.922 18.379 34.5371 18.9997C35.0585 19.5273 35.6283 20.3578 36.231 21.2374C36.7636 22.0145 37.3148 22.8189 37.8734 23.4645C39.0944 24.8778 39.8014 25.3707 40.697 25.9926C41.5009 26.5519 42.4145 27.1863 44.0271 28.7244C44.1302 28.8237 44.2661 28.8758 44.4045 28.8758C44.4741 28.8758 44.5467 28.8622 44.6143 28.8349L54.5805 24.7053C54.8312 24.6016 54.9684 24.331 54.9032 24.069C54.6512 23.0424 54.6314 21.747 54.6103 20.3764C54.5954 19.4069 54.5805 18.4057 54.4793 17.4529C54.3285 16.0271 53.8356 14.8751 53.3136 13.6548L50.7153 7.34712Z" fill="#ffffff"/>
</svg>
